<?xml version="1.0" encoding="utf-8"?>
<!DOCTYPE svg PUBLIC "-//W3C//DTD SVG 1.0//EN" "http://www.w3.org/TR/2001/REC-SVG-20010904/DTD/svg10.dtd">
<svg version="1.0" xmlns="http://www.w3.org/2000/svg" width="128px" height="128px" viewBox="0 0 128 128" preserveAspectRatio="xMidYMid meet">
 <g fill="none" stroke="#000000" stroke-width="1">
  <path d="M127.8 46.4C125.4 45 122 45.2 119.2 45.2C113.4 45.1 107.4 45.1 101.5 45.1L95.5 45.1C95 45.1 93.8 44.8 93.4 45.4C92.7 46 92.8 48.1 92.7 49C92.2 52.7 92 56.7 93.2 60.4C93.5 61.2 94.1 62 94.7 62.5C95 62.8 95.7 63.1 95.7 63.5C95.7 64.1 94.1 64 93.7 64C92.4 63.7 91.7 62.2 91.1 61.2C89.5 58.5 88.4 55.5 87.2 52.7C86.8 51.7 85.8 50.1 86.1 49C86.5 47.1 89.8 46.5 91 45C92.5 42.5 92.5 38.2 90.4 36.2C88.8 34.8 86.4 34.1 84.4 34.1C83.2 34.1 80.8 34.4 81.1 36C81.4 37.2 82.8 37 83.8 37.2C85.8 37.5 89 38.7 89 41.1C89 46 81.1 42.1 81.2 46.1C81.4 50 82.5 53.8 85 56.8C85.7 57.7 86.4 58.7 85.4 59.5C83.5 61 80.2 61 78.1 61.2C72.2 62.1 66.4 62.5 60.5 63.5C58 64 55.1 65.2 52.7 63.2C51.8 62.4 51.7 60.8 51.2 59.8C50.1 57 48.4 54.4 47.5 51.5C47.1 50.5 46.7 49 47.5 48.1C48.7 47 50.7 47.1 52.1 47.1C52.7 47.1 53.8 47.1 54.2 46.5C55.1 45.7 53.4 45.5 52.8 45.4C49.4 45.1 46 45.2 42.5 45.8C41.7 46 39.4 46 39.4 47.2C39.5 48.4 41.1 48.7 42 49.2C43.1 49.8 43.7 51.1 43.5 52.4C43.2 56.2 39.7 60 37.4 62.8C36.7 63.7 35.7 65.5 34.7 65.8C33.4 66.4 30.1 65 29 64.4C28.5 64.2 28.1 63.5 28.8 63.2C30.7 62.8 32.7 63.5 34.2 62.1C37.1 59.5 35.7 53.5 35.7 50.1C35.7 49.1 36 46.7 35.4 45.8C35 45.4 34.1 45.5 33.5 45.5L28.5 45.5C21.7 45.5 14.8 45.2 8 45.2C6 45.2 4 45.1 2 45.1C1.4 45.1 0.4 45.7 0.1 45C-0.2 44.1 0 42.8 0 42L0 35L0 10.7L0 3C0 2.4 -0.5 0.7 0.2 0.2C0.5 0 1.2 0.1 1.7 0.1L5.7 0.1L21 0.1L80.4 0.1L116 0.1L124.7 0.1C125.4 0.1 127.2 -0.4 127.7 0.4C128.2 1 127.8 3.1 127.8 4L127.8 14.1L127.8 48.8L127.8 57.4C127.8 58.7 127.8 60.7 126.8 61.8C126 63 123.5 62.7 122.2 62.8C118.1 63.1 114.1 63.2 110 63.2C108.5 63.2 107.2 63.4 105.8 63.4C105.4 63.4 104.5 63.2 104.4 63.8C104.2 64.7 106.4 65.1 107 65.2C110 66.5 112.7 68.4 115 70.8C121.4 77.8 122.4 88.1 117 96C109 107.5 91 108.4 82.7 96.7C81.4 94.8 80.5 92.8 80 90.7C78.5 84.8 79 78.4 82.5 73.2C84.2 70.8 87.5 68.8 88.4 66C86.8 65.7 84.8 67.7 83.5 68.4C79.8 71 76.4 73.8 72.8 76.5C71.8 77.2 69.5 78.4 69.1 79.7C68.7 80.8 69 82.7 69 83.8C69 86.8 68.2 89.8 65.8 91.8C62.5 94.5 57.5 94 54.5 91.1C52.5 89.1 49.5 85.2 46.2 86.1C44.7 86.7 44.2 88.2 43.8 89.7C43 92 42 94.1 40.7 96.1C37 102 30.2 105.2 23.2 105.1C12.8 105 4.5 97.2 3.1 87C2 78.2 6.8 70.1 14.5 66.1C16.4 65.2 18.8 64 21 63.8M0.4 45.5C0.4 46.5 0.7 47.7 0.5 48.7C0.4 49.4 0 49.8 0 50.5C-0.5 69.5 0 88.5 0 107.5L0 122.8L0 126.5C0 127 -0.1 127.5 0.2 127.8C0.8 128.4 2.8 128 3.7 128L13.1 128L49.7 128L108 128L122.5 128L126.1 128C126.5 128 127.2 128.1 127.5 127.7C128.1 127.2 127.8 125.8 127.8 125.1L127.8 118L127.8 89L127.8 70.4C127.8 67.7 128.4 64.2 127 62M121.5 48.5C122.7 48.1 123.1 49.7 123.4 50.4C123.8 52.4 123.8 54.5 123.8 56.7C123.8 57.5 124 58.7 123 59C121.4 59.5 120.4 58.2 120 57C119.2 54.8 119.2 52.7 120 50.7C120.2 50 120.7 48.8 121.5 48.5M22.4 48.7C23.7 48.8 23.8 50.2 23.8 51.2C24.1 53.4 25 59.5 21.5 59.1C20.2 59 20.2 57.7 20.1 56.7C19.8 54.7 20 52.7 20.4 50.7C20.5 49.7 21.1 48.5 22.4 48.7M5.8 48.8C9.4 47.7 8.8 54.2 8.8 56.2C8.8 57.2 9 58.7 7.8 59.1C3.5 60.2 4 54.4 4.2 52C4.4 50.8 4.5 49.1 5.8 48.8M13.8 48.8C15.2 48.4 16.1 49.8 16.5 51C17.2 53 17.2 58.2 14.5 59.1C13.1 59.4 12.4 58.2 12.2 57.1C11.8 55.1 12 53 12.4 51C12.5 50.1 12.8 49 13.8 48.8M29.7 48.8C30.7 48.4 31.2 50 31.5 50.7C31.8 52.7 31.8 54.8 31.8 56.8C31.8 57.7 31.8 58.7 31 59C29.5 59.5 28.4 59 28.1 57.5C27.8 55.5 28.1 53.4 28.4 51.4C28.5 50.5 28.7 49.1 29.7 48.8M97.7 48.8C98.7 48.4 99.2 50 99.5 50.7C99.8 52.7 99.8 54.8 99.8 56.8C99.8 57.7 99.8 58.7 99 59C97.5 59.5 96.4 59 96.1 57.5C95.8 55.5 96.1 53.4 96.4 51.4C96.5 50.5 96.7 49.1 97.7 48.8M105.7 48.8C106.7 48.4 107.2 50 107.5 50.7C107.8 52.7 107.8 54.8 107.8 56.8C107.8 57.7 107.8 58.7 107 59C105.5 59.5 104.4 59 104.1 57.5C103.8 55.5 104.1 53.4 104.4 51.4C104.5 50.5 104.7 49.1 105.7 48.8M113.7 48.8C114.7 48.4 115.2 50 115.5 50.7C115.8 52.7 115.8 54.8 115.8 56.8C115.8 57.7 115.8 58.7 115 59C113.5 59.5 112.4 59 112.1 57.5C111.8 55.5 112.1 53.4 112.4 51.4C112.5 50.5 112.7 49.1 113.7 48.8M0.5 49.2C1.4 50.2 1.1 51.5 1.1 52.7C1.1 54.8 1.4 57 1.4 59.1C1.4 60 1.1 61.8 1.7 62.4C2 62.8 2.7 62.7 3.1 62.7C4.2 62.7 5.2 62.8 6.4 62.8C9.2 62.8 12 63.2 14.8 63.2C16.2 63.2 18.2 63.1 19.4 64M45.7 58.4C46.4 58.2 46.8 59.4 47.1 59.8C48 61.5 48.8 63.4 49.7 65.1C51 67.7 52.1 70.4 53.2 73.1C53.7 74.1 54.7 75.5 54.7 76.5C54.7 77.2 54 78.1 53.5 78.7C52.2 80.8 50.5 82.7 48 83.1C44.1 83.7 43.5 79.2 42.2 76.5C41.5 74.8 40.7 73.2 39.8 71.7C39.1 70.7 38.2 69.7 38.4 68.4C38.5 66.1 41 63.8 42.2 62.1C43 61.2 44.5 58.7 45.7 58.4M25.8 63.2L28.2 63.5M95.8 63.7L97.2 63.8M102.7 63.8L104.2 63.8M81 65.5C77.8 68.7 74.4 71.4 71 74.1C69.7 75.1 68.1 76.7 66.2 76.8C62.7 77 57.8 74.8 56.4 71.4C56.1 70.5 55.4 69.1 55.8 68.2C56 67.7 56.7 67.5 57.2 67.4C58.7 67.1 60 67 61.4 66.8C66.1 66.2 70.8 65.5 75.5 65.1C77.2 65 79.4 64.2 80.8 65.5L81 65.5L81.2 64.8L80.2 64.7M23.7 70.1C25.2 70 30.2 70.2 30 72.7C29.5 75.2 26.2 78.5 24.2 79.8C23.5 80.2 22.8 80.2 22.1 80.7C20.4 81.7 19.5 84 20 85.8C20.4 87.7 23 88.1 24.5 88.1C26.1 88.1 26.8 87.4 28.1 86.8C30.2 86 32.8 86.1 35.1 86.1C36 86.1 37.2 86.1 37.7 87C38.1 87.8 37.4 89.4 37 90.2C36.7 91.1 36.2 91.8 35.7 92.5C35 93.7 33.8 94.7 32.8 95.7C31.2 97 29.4 98.1 27.4 98.7C14.4 102 4.2 86 12.5 75.5C15.2 72.1 19.4 70.7 23.7 70.1M97.5 70.1C99.2 69.8 101.1 70.2 102.8 70.7C108.1 72 112.4 76.1 113.7 81.4C115.5 89.5 109.5 98.1 101.2 99C93.1 99.7 87.4 94.4 85.7 86.7C84.8 83 86 79.2 88.1 76.2C88.8 75.2 89.7 74 90.8 73.4C92.7 72.7 94 75.7 94.5 77C95.1 78.4 95.5 79.8 95.7 81.4C95.7 83.1 95.2 84.7 96 86.4C96.8 88.7 100 89.4 102 88.1C102.4 87.8 102.8 87.4 103.2 87C105.7 83.7 101.8 81.5 100 79.4C99.1 78.2 98.2 77.1 97.7 75.8C96.8 74.2 94.8 70.7 97.5 70.1M33.7 74.4C34.4 74.2 35 75.8 35.2 76.2C36.1 77.5 39.5 81.8 36.8 82.8C35 83.5 32.2 83.2 30.2 83C29.7 83 28.5 83.1 28.2 82.5C28 81.8 28.8 81 29.1 80.4C30.1 78.8 31.2 77.4 32.4 76C32.7 75.5 33.1 74.5 33.7 74.4"/>
 </g>
</svg>